<?xml version="1.0" encoding="utf-8"?>
<!-- Generator: Adobe Illustrator 16.0.0, SVG Export Plug-In . SVG Version: 6.00 Build 0)  -->
<!DOCTYPE svg PUBLIC "-//W3C//DTD SVG 1.1//EN" "http://www.w3.org/Graphics/SVG/1.1/DTD/svg11.dtd">
<svg version="1.1" id="Layer_1" xmlns="http://www.w3.org/2000/svg" xmlns:xlink="http://www.w3.org/1999/xlink" x="0px" y="0px"
	 width="179px" height="103px" viewBox="0 0 179 103" enable-background="new 0 0 179 103" xml:space="preserve">
<g transform="translate(0.000000,103.000000) scale(0.100000,-0.100000)">
	<path fill="#B60303" d="M1280,1015c0-7.998,2.998-15,5.996-15c16.006,0,341.006-52.002,354.004-57.002
		c7.998-2.998-34.004-17.998-95-33.999C1040,776.001,596.001,545,205,215C52.002,85.996-7.002,22.998,7.002,9.004
		C16.001,0,41.001,17.002,108.999,82.002C497.998,452.002,1020,740,1549.004,876.001c73.994,18.999,135,32.998,135.996,31.997
		c2.002-1.997-57.998-51.997-130.996-110.996C1480,737.002,1420,683.999,1420,680c0-5,4.004-11.001,9.004-13.999
		C1440,658.999,1792.998,942.002,1782.998,950c-7.002,6.001-470.996,81.001-495,80C1282.998,1030,1280,1022.998,1280,1015z"/>
</g>
</svg>
